<svg width="371" height="612" viewBox="0 0 371 612" fill="none" xmlns="http://www.w3.org/2000/svg">
<g opacity="0.2" clip-path="url(#clip0_114_500)">
<path d="M185.445 96.5282C184.349 96.5838 183.306 96.9641 182.478 97.6089C181.651 98.2537 181.088 99.1261 180.877 100.089C179.166 108.198 178.42 116.446 178.654 124.694C178.671 124.808 178.663 124.924 178.629 125.035C178.596 125.147 178.538 125.251 178.459 125.342C178.38 125.432 178.282 125.508 178.17 125.565C178.057 125.622 177.934 125.658 177.806 125.671C177.69 125.707 177.568 125.721 177.446 125.713C177.325 125.705 177.206 125.676 177.097 125.625C176.989 125.575 176.893 125.506 176.816 125.422C176.738 125.338 176.68 125.24 176.646 125.135C173.13 118.117 170.543 110.755 168.939 103.198C168.817 102.601 168.559 102.033 168.18 101.53C167.801 101.027 167.31 100.599 166.737 100.273C166.165 99.9476 165.523 99.7312 164.852 99.6376C164.181 99.5439 163.496 99.575 162.839 99.7289C150.153 102.703 138.103 107.533 127.178 114.022C127.042 114.103 126.909 114.19 126.783 114.282L124.884 115.67C124.173 116.188 123.639 116.874 123.339 117.649C123.04 118.424 122.988 119.257 123.189 120.057C126.162 131.273 130.792 142.083 136.959 152.203C137.217 152.573 137.309 153.016 137.216 153.444C137.122 153.872 136.85 154.252 136.455 154.508C136.112 154.799 135.656 154.961 135.183 154.959C134.71 154.958 134.257 154.793 133.916 154.5C124.998 148.096 117.1 140.635 110.439 132.322C110.05 131.826 109.55 131.407 108.971 131.092C108.392 130.777 107.747 130.571 107.075 130.489C106.403 130.407 105.719 130.449 105.066 130.613C104.413 130.778 103.805 131.061 103.279 131.444L100.778 133.271C93.379 138.501 87.205 144.983 82.6104 152.346C78.0158 159.709 75.0907 167.809 74.0027 176.18C73.401 180.51 73.9019 184.904 75.4677 189.035C77.0336 193.165 79.624 196.925 83.0455 200.033C86.4669 203.141 90.6308 205.517 95.2261 206.983C99.8214 208.45 104.729 208.969 109.583 208.501L120.518 207.567C121.863 207.452 123.219 207.599 124.493 207.998C125.767 208.397 126.929 209.039 127.899 209.878C128.868 210.718 129.622 211.735 130.108 212.861C130.594 213.987 130.802 215.194 130.715 216.398L130.015 226.196C129.645 230.546 130.38 234.914 132.164 238.973C133.949 243.031 136.737 246.676 140.321 249.634C143.904 252.593 148.191 254.788 152.859 256.057C157.528 257.326 162.458 257.635 167.281 256.961C176.598 255.73 185.554 252.868 193.637 248.541C201.719 244.214 208.769 238.506 214.384 231.743L216.391 229.4C216.843 228.865 217.152 228.244 217.294 227.586C257.942 230.77 310.241 231.314 373.532 229.209L373.665 256.266C323.052 251.89 287.325 254.031 262.105 259.176C251.805 254.989 240.527 253.077 229.221 253.602C224.344 253.782 219.574 254.945 215.268 257.003C210.962 259.062 207.231 261.963 204.354 265.49C201.477 269.017 199.529 273.079 198.654 277.372C197.78 281.665 198.002 286.077 199.304 290.281L202.106 299.77C202.45 300.937 202.507 302.157 202.273 303.346C202.039 304.535 201.519 305.664 200.749 306.657C199.979 307.65 198.978 308.481 197.814 309.095C196.65 309.709 195.352 310.089 194.008 310.211L183.078 311.202C178.216 311.589 173.513 312.954 169.322 315.194C165.13 317.434 161.558 320.491 158.873 324.136C156.187 327.782 154.457 331.922 153.813 336.247C153.168 340.572 153.626 344.97 155.15 349.112C158.019 357.126 162.628 364.553 168.713 370.97C174.799 377.386 182.241 382.666 190.615 386.507L193.527 387.893C194.125 388.178 194.783 388.349 195.459 388.397C196.135 388.444 196.815 388.366 197.457 388.168C198.098 387.971 198.687 387.657 199.187 387.246C199.686 386.836 200.086 386.338 200.361 385.783C205.101 376.468 211.239 367.771 218.605 359.934C218.876 359.587 219.285 359.346 219.749 359.262C220.213 359.178 220.695 359.258 221.094 359.484C221.538 359.665 221.887 359.991 222.071 360.394C222.255 360.798 222.261 361.249 222.086 361.656C218.221 372.66 216.012 384.072 215.516 395.593C215.497 396.412 215.73 397.219 216.19 397.926C216.651 398.633 217.32 399.213 218.126 399.602L220.289 400.631C220.433 400.7 220.58 400.762 220.731 400.817C232.85 405.279 245.713 407.916 258.8 408.622C259.478 408.658 260.157 408.569 260.795 408.36C261.433 408.151 262.016 407.827 262.507 407.408C262.999 406.988 263.388 406.483 263.651 405.923C263.914 405.363 264.045 404.761 264.036 404.154C263.982 396.462 264.93 388.789 266.862 381.29C266.873 381.182 266.908 381.076 266.966 380.98C267.024 380.884 267.103 380.799 267.199 380.731C267.294 380.663 267.404 380.613 267.522 380.584C267.64 380.555 267.763 380.548 267.884 380.563C268.013 380.553 268.142 380.567 268.264 380.602C268.387 380.638 268.5 380.695 268.597 380.771C268.694 380.846 268.773 380.938 268.83 381.042C268.886 381.145 268.919 381.258 268.926 381.373C270.481 389.504 272.992 397.465 276.418 405.124C276.833 406.031 277.574 406.789 278.525 407.277C279.476 407.765 280.582 407.956 281.668 407.82C285.485 407.34 289.169 406.717 292.619 405.966L331.176 397.571C334.256 396.899 336.994 395.32 338.949 393.088C340.903 390.856 341.961 388.102 341.951 385.269C341.948 384.781 341.914 384.293 341.849 383.808L337.101 348.609C336.676 345.461 336.035 342.16 335.196 338.799C334.958 337.842 334.369 336.984 333.523 336.36C332.678 335.737 331.623 335.383 330.527 335.355C321.297 335.18 312.071 335.876 303.003 337.432C302.88 337.467 302.751 337.479 302.623 337.468C302.494 337.457 302.37 337.423 302.257 337.369C302.144 337.314 302.044 337.24 301.963 337.15C301.883 337.06 301.823 336.957 301.788 336.846C301.73 336.75 301.694 336.644 301.683 336.536C301.672 336.427 301.686 336.317 301.724 336.213C301.761 336.109 301.822 336.013 301.903 335.931C301.983 335.849 302.082 335.782 302.192 335.735C309.37 331.482 317.078 327.993 325.16 325.338C325.8 325.133 326.385 324.812 326.879 324.395C327.373 323.978 327.766 323.475 328.033 322.917C328.3 322.358 328.435 321.757 328.43 321.15C328.425 320.543 328.279 319.944 328.003 319.389C322.666 308.691 315.383 298.858 306.449 290.29C306.338 290.183 306.221 290.081 306.098 289.984L304.259 288.537C303.571 287.996 302.728 287.637 301.824 287.5C300.92 287.363 299.991 287.454 299.142 287.763C287.242 292.225 276.058 298.082 265.884 305.181C265.518 305.469 265.044 305.623 264.556 305.611C264.069 305.599 263.605 305.421 263.259 305.115C262.882 304.86 262.629 304.485 262.554 304.067C262.479 303.65 262.587 303.223 262.856 302.874C268.481 293.96 275.438 285.77 283.537 278.533C284.021 278.109 284.402 277.599 284.657 277.037C284.912 276.475 285.034 275.872 285.016 275.266C284.998 274.66 284.841 274.064 284.553 273.515C284.266 272.966 283.856 272.477 283.347 272.076L280.925 270.17C278.996 268.612 276.974 267.149 274.867 265.787C298.362 262.246 330.298 261.243 373.71 265.099L373.982 320.273C373.985 320.934 374.155 321.587 374.479 322.182C374.802 322.776 375.272 323.298 375.852 323.709C376.432 324.119 377.109 324.407 377.831 324.552C378.553 324.697 379.303 324.694 380.024 324.545L505.475 298.587C511.809 297.302 517.463 294.118 521.495 289.565C525.528 285.011 527.696 279.363 527.64 273.559L527.34 212.8C527.339 206.996 525.116 201.369 521.038 196.855C516.961 192.342 511.276 189.214 504.929 187.991L379.228 163.272C378.505 163.13 377.756 163.135 377.035 163.287C376.314 163.439 375.641 163.733 375.064 164.149C374.488 164.566 374.024 165.092 373.706 165.69C373.388 166.288 373.225 166.942 373.228 167.604L373.488 220.383C296.053 222.964 243.244 221.296 207.241 217.877C200.87 213.329 194.979 208.269 189.642 202.76C189.304 202.465 189.106 202.065 189.09 201.642C189.073 201.22 189.24 200.808 189.554 200.492C189.828 200.131 190.244 199.876 190.72 199.779C191.196 199.682 191.694 199.75 192.116 199.969C203.628 205.16 215.864 208.956 228.501 211.258C229.401 211.413 230.332 211.34 231.19 211.049C232.047 210.757 232.797 210.258 233.354 209.607L234.846 207.867C234.945 207.75 235.037 207.63 235.124 207.506C242.038 197.542 247.06 186.626 249.987 175.201C250.138 174.609 250.151 173.996 250.025 173.399C249.9 172.803 249.637 172.237 249.255 171.735C248.873 171.234 248.379 170.809 247.804 170.486C247.229 170.164 246.586 169.951 245.914 169.861C237.413 168.665 229.098 166.586 221.139 163.666C221.021 163.638 220.91 163.59 220.813 163.523C220.717 163.457 220.636 163.373 220.577 163.278C220.518 163.183 220.48 163.078 220.468 162.969C220.455 162.861 220.467 162.751 220.503 162.647C220.513 162.532 220.549 162.42 220.609 162.318C220.668 162.216 220.75 162.125 220.849 162.052C220.949 161.978 221.063 161.923 221.187 161.89C221.31 161.857 221.44 161.847 221.568 161.859C230.8 161.805 240 160.88 249.017 159.098C250.086 158.879 251.044 158.349 251.739 157.589C252.435 156.83 252.827 155.886 252.855 154.906C252.885 153.82 252.898 152.745 252.893 151.68C252.882 149.37 252.785 147.116 252.606 144.949L249.666 109.591C249.409 106.515 247.899 103.632 245.422 101.487C242.945 99.3414 239.672 98.0834 236.224 97.9506L196.588 96.4378C193.041 96.3023 189.292 96.3327 185.445 96.5282ZM272.93 275.638C265.774 282.599 259.525 290.263 254.303 298.483C252.883 300.596 252.349 303.09 252.797 305.52C253.245 307.951 254.645 310.159 256.748 311.75C258.813 313.391 261.457 314.333 264.22 314.412C266.984 314.492 269.692 313.703 271.874 312.183C280.536 306.156 289.965 301.068 299.965 297.025C306.648 303.566 312.3 310.892 316.765 318.8C309.798 321.436 303.114 324.634 296.797 328.355C294.683 329.592 293.113 331.446 292.356 333.6C291.598 335.755 291.7 338.076 292.643 340.169C293.586 342.263 295.312 343.998 297.528 345.08C299.743 346.162 302.311 346.524 304.793 346.104C311.901 344.895 319.113 344.238 326.347 344.14C326.741 346.03 327.061 347.882 327.303 349.675L332.05 384.873C332.175 385.792 331.917 386.719 331.327 387.48C330.737 388.241 329.855 388.783 328.849 389.001L290.293 397.397C288.329 397.824 286.276 398.207 284.156 398.541C281.718 392.456 279.873 386.194 278.643 379.823C278.211 377.6 276.93 375.579 275.018 374.106C273.105 372.633 270.68 371.799 268.155 371.746C265.63 371.692 263.161 372.423 261.169 373.813C259.178 375.204 257.786 377.167 257.232 379.37C255.552 385.962 254.549 392.676 254.234 399.429C244.378 398.473 234.714 396.32 225.512 393.028C226.236 383.244 228.256 373.569 231.529 364.207C232.355 361.848 232.231 359.306 231.177 357.022C230.123 354.738 228.207 352.858 225.762 351.707C223.355 350.507 220.549 350.111 217.844 350.591C215.14 351.07 212.713 352.393 210.997 354.323C204.218 361.579 198.382 369.499 193.6 377.93C179.774 371.151 169.385 359.893 164.569 346.47C163.481 343.577 163.144 340.499 163.584 337.471C164.024 334.443 165.228 331.542 167.106 328.99C168.984 326.437 171.487 324.299 174.424 322.738C177.362 321.176 180.658 320.232 184.063 319.976L194.992 318.986C198.97 318.622 202.722 317.156 205.723 314.792C206.039 315.186 206.426 315.531 206.868 315.811L288.592 366.395C289.124 366.73 289.725 366.968 290.361 367.094C290.996 367.22 291.654 367.232 292.295 367.13C292.936 367.028 293.548 366.814 294.097 366.499C294.645 366.185 295.119 365.777 295.49 365.298C295.861 364.819 296.122 364.28 296.259 363.711C296.396 363.142 296.406 362.554 296.287 361.982C296.169 361.41 295.925 360.864 295.57 360.377C295.214 359.89 294.754 359.47 294.216 359.143L212.493 308.559C212.043 308.287 211.546 308.085 211.022 307.959C212.446 304.618 212.664 300.965 211.647 297.51L208.845 288.021C207.917 285.083 207.749 281.995 208.353 278.989C208.958 275.983 210.319 273.139 212.334 270.671C214.349 268.204 216.965 266.177 219.984 264.746C223.004 263.314 226.347 262.515 229.761 262.408C245.52 261.723 260.967 266.457 272.93 275.638ZM502.797 196.606C506.953 197.407 510.675 199.455 513.345 202.41C516.014 205.365 517.47 209.049 517.471 212.849L517.77 273.608C517.807 277.408 516.388 281.106 513.747 284.087C511.107 287.069 507.405 289.153 503.258 289.994L383.822 314.707L383.124 173.072L502.797 196.606ZM196.156 105.25L235.792 106.763C236.826 106.802 237.808 107.18 238.551 107.823C239.294 108.467 239.747 109.332 239.824 110.255L242.763 145.612C242.913 147.414 242.998 149.286 243.02 151.209C235.902 152.374 228.686 152.987 221.452 153.04C218.914 153.05 216.459 153.854 214.514 155.312C212.569 156.771 211.257 158.792 210.805 161.024C210.672 161.65 210.606 162.286 210.609 162.924C210.617 164.852 211.272 166.734 212.49 168.324C213.707 169.915 215.431 171.142 217.439 171.848C224.439 174.396 231.686 176.368 239.089 177.738C236.416 186.275 232.454 194.447 227.31 202.028C216.628 199.806 206.279 196.458 196.482 192.056C194.013 190.946 191.185 190.644 188.492 191.204C185.798 191.763 183.407 193.148 181.735 195.118C180.016 197.046 179.118 199.456 179.203 201.919C179.289 204.381 180.351 206.735 182.201 208.561C189.098 215.714 196.883 222.143 205.406 227.724C195.653 238.818 181.52 246.156 165.912 248.229C162.539 248.72 159.087 248.518 155.815 247.64C152.544 246.762 149.54 245.23 147.031 243.161C144.521 241.091 142.572 238.538 141.33 235.695C140.088 232.851 139.587 229.792 139.864 226.748L140.564 216.95C140.815 213.384 139.812 209.838 137.695 206.809C138.183 206.595 138.627 206.309 139.009 205.964L208.262 142.092C209.174 141.252 209.674 140.122 209.654 138.953C209.634 137.783 209.096 136.669 208.156 135.856C207.217 135.042 205.954 134.596 204.645 134.615C203.337 134.634 202.09 135.117 201.179 135.958L131.926 199.83C131.552 200.182 131.247 200.588 131.022 201.03C127.568 199.234 123.57 198.449 119.589 198.786L108.654 199.721C105.259 200.063 101.822 199.712 98.6032 198.692C95.3842 197.672 92.4678 196.011 90.0744 193.835C87.6811 191.658 85.8737 189.023 84.7889 186.129C83.704 183.234 83.3702 180.157 83.8127 177.129C85.6432 163.122 93.4043 150.268 105.502 141.207C112.012 148.644 119.447 155.395 127.664 161.331C129.763 162.925 132.43 163.8 135.186 163.798C137.943 163.797 140.61 162.92 142.712 161.323C144.862 159.768 146.336 157.589 146.877 155.165C147.418 152.74 146.992 150.225 145.673 148.054C140.441 139.441 136.371 130.302 133.549 120.829C141.866 115.996 150.881 112.199 160.344 109.543C162.11 116.113 164.543 122.524 167.614 128.697C168.633 130.762 170.422 132.446 172.676 133.463C174.93 134.48 177.509 134.766 179.975 134.274C182.441 133.781 184.64 132.54 186.198 130.761C187.756 128.983 188.577 126.777 188.52 124.52C188.351 118.056 188.809 111.591 189.889 105.197C192.04 105.155 194.137 105.173 196.156 105.25Z" fill="white" fill-opacity="0.5"/>
</g>
<g opacity="0.2" clip-path="url(#clip1_114_500)">
<path d="M333.775 508.124C332.713 506.714 331.29 505.616 329.657 504.945C328.024 504.274 326.24 504.055 324.493 504.311C291.319 509.17 260.369 523.584 233.007 546.642C232.317 544.236 231.478 541.875 230.495 539.573C228.801 535.382 227.049 531.049 227.879 527.961C228.519 525.578 231.844 522.945 235.061 520.4C239.05 517.243 243.57 513.665 245.614 508.667C247.439 504.204 246.757 499.088 246.096 494.141C245.704 491.713 245.492 489.26 245.463 486.801C245.492 485.432 245.145 484.081 244.459 482.897C243.773 481.712 242.775 480.738 241.574 480.082C240.364 479.412 238.992 479.086 237.61 479.142C236.227 479.197 234.887 479.631 233.734 480.396C209.309 496.586 191.376 520.784 180.99 551.25C170.603 520.79 152.687 496.583 128.266 480.396C127.113 479.631 125.772 479.197 124.389 479.141C123.006 479.086 121.635 479.411 120.424 480.082C119.223 480.739 118.225 481.712 117.54 482.897C116.854 484.082 116.507 485.432 116.536 486.801C116.506 489.26 116.294 491.713 115.902 494.141C115.242 499.088 114.56 504.203 116.385 508.666C118.428 513.664 122.95 517.243 126.939 520.4C130.155 522.945 133.48 525.577 134.121 527.96C134.951 531.048 133.199 535.382 131.505 539.573C130.521 541.875 129.682 544.236 128.993 546.642C101.63 523.583 70.6803 509.17 37.5058 504.311C35.7595 504.056 33.9768 504.275 32.3443 504.946C30.7118 505.616 29.2894 506.713 28.2262 508.122C27.1629 509.53 26.4978 511.199 26.3005 512.952C26.1032 514.706 26.3809 516.481 27.1045 518.09C28.274 520.839 29.3043 523.646 30.1914 526.498C32.3056 532.895 34.4914 539.51 39.1514 543.688C44.4195 548.411 51.7114 550.023 58.7623 551.583C64.9102 552.943 70.7169 554.228 73.3623 557.279C76.6797 561.104 77.1416 567.922 77.5884 574.516C78.0356 581.118 78.4984 587.945 81.8408 593.041C85.8237 599.111 92.8125 602.804 98.9785 606.062C104.438 608.948 109.594 611.672 111.213 615.108C113.682 620.348 112.103 627.434 110.576 634.288C109.77 637.557 109.182 640.876 108.816 644.222H99.1757C97.9823 644.222 96.8377 644.696 95.9938 645.54C95.1498 646.384 94.6757 647.529 94.6757 648.722V667.187C94.6643 702.871 100.483 738.317 111.902 772.124L117.968 790.101H110.216C109.022 790.101 107.878 790.575 107.034 791.419C106.19 792.263 105.716 793.407 105.716 794.601V822.364C105.716 823.558 106.19 824.703 107.034 825.546C107.878 826.39 109.022 826.864 110.216 826.864H251.784C252.977 826.864 254.122 826.39 254.966 825.546C255.81 824.703 256.284 823.558 256.284 822.364V794.601C256.284 793.407 255.81 792.263 254.966 791.419C254.122 790.575 252.977 790.101 251.784 790.101H244.032L250.098 772.124C261.517 738.317 267.335 702.871 267.324 667.187V648.723C267.324 647.529 266.85 646.385 266.006 645.541C265.162 644.697 264.017 644.223 262.824 644.223H253.184C252.819 640.876 252.231 637.557 251.424 634.288C249.898 627.435 248.318 620.348 250.787 615.108C252.406 611.672 257.563 608.947 263.022 606.063C269.188 602.804 276.176 599.111 280.159 593.041C283.502 587.945 283.965 581.118 284.411 574.516C284.859 567.922 285.319 561.105 288.637 557.279C291.282 554.228 297.089 552.943 303.237 551.584C310.289 550.024 317.58 548.411 322.847 543.688C327.507 539.51 329.694 532.895 331.807 526.498C332.695 523.646 333.725 520.84 334.894 518.091C335.619 516.482 335.898 514.708 335.701 512.954C335.504 511.201 334.839 509.532 333.775 508.124ZM236.527 489.377C236.649 491.382 236.916 493.379 237.176 495.331C237.679 499.109 238.201 503.017 237.284 505.26C236.134 508.073 232.749 510.752 229.475 513.343C225.112 516.796 220.6 520.368 219.187 525.625C217.574 531.625 220.006 537.64 222.15 542.946C223.552 546.415 225.003 550.003 224.702 552.322C224.587 553.102 224.378 553.865 224.079 554.595C212.407 565.639 201.817 577.773 192.454 590.832C188.262 596.637 184.458 602.368 181.004 607.921C180.658 607.366 180.293 606.801 179.941 606.243C180.37 597.48 181.351 588.753 182.876 580.114C190.097 539.599 208.14 509.087 236.527 489.377ZM137.297 552.322C136.996 550.003 138.447 546.416 139.849 542.947C141.994 537.64 144.426 531.625 142.813 525.625C141.4 520.368 136.887 516.796 132.524 513.343C129.25 510.753 125.865 508.073 124.715 505.26C123.798 503.017 124.319 499.11 124.823 495.331C125.083 493.379 125.35 491.382 125.472 489.376C150.766 506.94 167.842 533.093 176.372 567.254C175.489 570.94 174.703 574.7 174.015 578.535C173.055 583.92 172.351 589.122 171.838 594.069C171.082 592.992 170.327 591.914 169.545 590.832C160.182 577.773 149.592 565.639 137.92 554.594C137.621 553.865 137.412 553.102 137.297 552.322ZM119.354 611.272C116.454 605.119 109.708 601.553 103.183 598.106C97.7233 595.22 92.0773 592.237 89.3659 588.104C87.3176 584.982 86.9533 579.603 86.5676 573.908C86.0461 566.211 85.4553 557.488 80.1618 551.383C75.5671 546.084 68.0124 544.412 60.7062 542.796C54.7883 541.487 48.6691 540.133 45.1594 536.987C42.2848 534.41 40.5617 529.196 38.7375 523.675C37.7559 520.524 36.6121 517.427 35.3107 514.395C35.25 514.257 35.2272 514.105 35.2447 513.956C35.2622 513.806 35.3194 513.664 35.4102 513.544C35.5011 513.424 35.6224 513.33 35.7615 513.273C35.9007 513.215 36.0527 513.196 36.2018 513.217C63.1291 517.16 88.4362 527.587 111.42 544.209C129.905 557.576 146.954 574.964 162.096 595.889C173.023 611.087 182.513 627.268 190.445 644.223H117.866C118.226 641.54 118.725 638.877 119.361 636.246C121.13 628.302 123.136 619.298 119.354 611.272ZM247.284 817.864H114.715V799.101H247.284L247.284 817.864ZM258.324 667.187C258.335 701.892 252.677 736.366 241.571 769.247L234.535 790.101H127.465L120.429 769.247C109.323 736.367 103.664 701.893 103.675 667.187V653.223H258.324L258.324 667.187ZM326.689 514.394C325.388 517.426 324.244 520.524 323.263 523.674C321.439 529.195 319.715 534.41 316.84 536.987C313.33 540.133 307.211 541.487 301.293 542.796C293.987 544.413 286.433 546.084 281.838 551.383C276.544 557.488 275.953 566.211 275.432 573.908C275.047 579.603 274.683 584.982 272.634 588.104C269.922 592.237 264.276 595.22 258.816 598.106C252.292 601.554 245.546 605.119 242.646 611.273C238.864 619.298 240.87 628.302 242.64 636.246C243.276 638.877 243.775 641.539 244.134 644.223H200.398C196.939 636.56 192.264 627.084 186.237 616.653C190.248 609.958 194.787 602.96 199.903 595.889C215.046 574.963 232.094 557.575 250.579 544.208C273.563 527.587 298.87 517.16 325.798 513.216C325.947 513.195 326.099 513.215 326.238 513.272C326.377 513.33 326.498 513.423 326.589 513.543C326.68 513.663 326.737 513.806 326.755 513.955C326.772 514.105 326.75 514.256 326.689 514.394Z" fill="white" fill-opacity="0.5"/>
</g>
<defs>
<clipPath id="clip0_114_500">
<rect width="441" height="349.788" fill="white" transform="translate(21.0762 443.623) rotate(-90.2826)"/>
</clipPath>
<clipPath id="clip1_114_500">
<rect width="395" height="246" fill="white" transform="translate(-29 397)"/>
</clipPath>
</defs>
</svg>
